<svg version="1.1" viewBox="0.0 0.0 1024.0 1024.0" fill="none" stroke="none" stroke-linecap="square" stroke-miterlimit="10" xmlns:xlink="http://www.w3.org/1999/xlink" xmlns="http://www.w3.org/2000/svg"><clipPath id="p.0"><path d="m0 0l1024.0 0l0 1024.0l-1024.0 0l0 -1024.0z" clip-rule="nonzero"/></clipPath><g clip-path="url(#p.0)"><path fill="#000000" fill-opacity="0.0" d="m0 0l1024.0 0l0 1024.0l-1024.0 0z" fill-rule="evenodd"/><path fill="#ff6fff" d="m0 170.67007c0 -94.25848 76.4116 -170.67007 170.67007 -170.67007l682.6598 0c45.264526 0 88.67517 17.98126 120.68201 49.98811c32.006836 32.006847 49.9881 75.41745 49.9881 120.68196l0 682.6598c0 94.258484 -76.41162 170.6701 -170.6701 170.6701l-682.6598 0c-94.25848 0 -170.67007 -76.41162 -170.67007 -170.6701z" fill-rule="evenodd"/><path stroke="#ff6fff" stroke-width="1.0" stroke-linejoin="round" stroke-linecap="butt" d="m0 170.67007c0 -94.25848 76.4116 -170.67007 170.67007 -170.67007l682.6598 0c45.264526 0 88.67517 17.98126 120.68201 49.98811c32.006836 32.006847 49.9881 75.41745 49.9881 120.68196l0 682.6598c0 94.258484 -76.41162 170.6701 -170.6701 170.6701l-682.6598 0c-94.25848 0 -170.67007 -76.41162 -170.67007 -170.6701z" fill-rule="evenodd"/><path fill="#0000ba" d="m52.157482 205.44139c0 -84.65637 68.62753 -153.2839 153.2839 -153.2839l613.1172 0c40.653442 0 79.641785 16.14951 108.38812 44.895817c28.746277 28.746307 44.895813 67.734665 44.895813 108.38809l0 613.1172c0 84.65637 -68.62756 153.28394 -153.28394 153.28394l-613.1172 0c-84.65637 0 -153.2839 -68.62756 -153.2839 -153.28394z" fill-rule="evenodd"/><path stroke="#0000ba" stroke-width="1.0" stroke-linejoin="round" stroke-linecap="butt" d="m52.157482 205.44139c0 -84.65637 68.62753 -153.2839 153.2839 -153.2839l613.1172 0c40.653442 0 79.641785 16.14951 108.38812 44.895817c28.746277 28.746307 44.895813 67.734665 44.895813 108.38809l0 613.1172c0 84.65637 -68.62756 153.28394 -153.28394 153.28394l-613.1172 0c-84.65637 0 -153.2839 -68.62756 -153.2839 -153.28394z" fill-rule="evenodd"/><path fill="#ff6fff" d="m139.75632 643.50385c-10.183975 0 -19.620308 1.9297485 -28.309029 5.7891235c-8.688713 3.8391724 -16.296387 9.143311 -22.823013 15.912415c-6.506439 6.769104 -11.598427 14.659607 -15.275963 23.67163c-3.6573486 8.99176 -5.4860077 18.700867 -5.4860077 29.127258c0 10.547668 1.828659 20.357788 5.4860077 29.43042c3.677536 9.052368 8.769524 16.963135 15.275963 23.732239c6.5266266 6.769104 14.164604 12.042908 22.913948 15.821472c8.749336 3.7785645 18.155365 5.6678467 28.218094 5.6678467c8.446243 0 16.478256 -1.3638916 24.096008 -4.091736c7.637985 -2.7278442 14.8112335 -6.759033 21.519714 -12.093445c0.99012756 -0.9901123 1.7276459 -2.071167 2.2125854 -3.243103c0.5051727 -1.1921997 0.7577362 -2.404541 0.7577362 -3.637146c0 -2.7480469 -0.7476349 -4.8898926 -2.2428894 -6.425598c-1.4750671 -1.5558472 -3.3037262 -2.4247437 -5.4860077 -2.6065674c-0.24023438 -0.022460938 -0.48095703 -0.033691406 -0.7221985 -0.033691406c-1.9298248 0 -3.8915863 0.7184448 -5.885269 2.1553345c-5.2132263 3.859375 -10.648712 6.880249 -16.306488 9.0625c-5.637558 2.1620483 -11.618607 3.243103 -17.943192 3.243103c-7.3348846 0 -14.235344 -1.454834 -20.701355 -4.364563c-6.445816 -2.9298706 -12.123779 -7.001465 -17.033913 -12.214661c-4.889908 -5.213196 -8.698807 -11.264954 -11.426659 -18.155334c-2.7278519 -6.89032 -4.091774 -14.305969 -4.091774 -22.24707c0 -7.819824 1.3639221 -15.174866 4.091774 -22.065186c2.7278519 -6.89032 6.536751 -12.942139 11.426659 -18.155334c4.9101334 -5.213196 10.588097 -9.304993 17.033913 -12.275269c6.466011 -2.9905396 13.36647 -4.485779 20.701355 -4.485779c8.062317 0 14.548538 1.060791 19.458664 3.182434c4.910141 2.1015015 9.65863 5.1324463 14.245453 9.092834c2.0121155 1.5731201 4.082184 2.3596802 6.2102356 2.3596802c0.22270203 0 0.44602966 -0.008605957 0.66999817 -0.025878906c2.3641357 -0.18182373 4.384781 -1.0507202 6.0618896 -2.6065674c1.677124 -1.5559082 2.515686 -3.5159302 2.515686 -5.880005c0 -1.1113892 -0.10101318 -2.071167 -0.30308533 -2.8793945c-0.18185425 -0.8082886 -0.55566406 -1.6165161 -1.12146 -2.4247437c-0.54556274 -0.8082886 -1.3134003 -1.5862427 -2.3035126 -2.3338623c-6.9509583 -5.69812 -13.871613 -9.789917 -20.761978 -12.275269c-6.890335 -2.4853516 -15.114288 -3.7280884 -24.67189 -3.7280884z" fill-rule="evenodd"/><path fill="#ff6fff" d="m256.14844 704.97125c6.3245544 0 11.972229 1.5255737 16.942963 4.576721c4.970764 3.0309448 8.880676 7.1833496 11.729767 12.457153c2.8490906 5.2738037 4.2736206 11.265015 4.2736206 17.97345c0 6.5670166 -1.42453 12.497559 -4.2736206 17.791626c-2.8490906 5.2738037 -6.7590027 9.436279 -11.729767 12.487427c-4.9707336 3.0309448 -10.618408 4.5463867 -16.942963 4.5463867c-6.2235413 0 -11.850998 -1.5154419 -16.88237 -4.5463867c-5.011154 -3.0511475 -8.981689 -7.213623 -11.911621 -12.487427c-2.9096985 -5.2940674 -4.364563 -11.224609 -4.364563 -17.791626c0 -6.708435 1.4548645 -12.699646 4.364563 -17.97345c2.9299316 -5.2738037 6.900467 -9.4262085 11.911621 -12.457153c5.031372 -3.0511475 10.658829 -4.576721 16.88237 -4.576721zm0 -16.761047c-9.699036 0 -18.428162 2.2630615 -26.187378 6.7893066c-7.7592163 4.526184 -13.901947 10.699158 -18.428146 18.518982c-4.5261993 7.819824 -6.7893066 16.639832 -6.7893066 26.460083c0 9.800049 2.081253 18.57965 6.243744 26.338867c4.162491 7.7591553 9.840439 13.911987 17.033905 18.458374c7.1934357 4.526184 15.326462 6.7893066 24.399109 6.7893066c9.052414 0 17.175339 -2.2631226 24.36879 -6.7893066c4.436432 -2.7960205 8.295837 -6.199707 11.578217 -10.2109375l0 0l0 6.937561c0 2.7278442 0.8991699 4.990906 2.6975403 6.7892456c1.7983704 1.7984009 4.0614624 2.6975708 6.7893066 2.6975708c2.7278748 0 4.990967 -0.8991699 6.789337 -2.6975708c1.7983704 -1.7983398 2.6975403 -4.0614014 2.6975403 -6.7892456l0 -41.523865c0 -9.820251 -2.263092 -18.640259 -6.7893066 -26.460083c-4.526245 -7.819824 -10.638641 -13.992798 -18.33722 -18.518982c-7.6986084 -4.526245 -16.38733 -6.7893066 -26.066132 -6.7893066z" fill-rule="evenodd"/><path fill="#ff6fff" d="m341.23306 645.38306c-2.7278442 0 -4.9606323 0.86883545 -6.698395 2.6066284c-1.7377319 1.7377319 -2.606598 3.97052 -2.606598 6.6983643l0 101.65759c0 6.708496 1.1820679 12.638977 3.5462036 17.791565c2.3641357 5.152649 5.6476746 9.224182 9.850555 12.214722c4.2231445 2.9702759 9.072632 4.4554443 14.548553 4.4554443l0.3637085 0c3.7179565 0 6.7590027 -0.86883545 9.123138 -2.6065674c2.3641357 -1.737793 3.5462036 -3.97052 3.5462036 -6.6983643c0 -2.7278442 -0.7779236 -4.9606323 -2.3338318 -6.6984253c-1.5558777 -1.7377319 -3.5765076 -2.6065674 -6.0618896 -2.6065674l-4.637329 0c-2.7278442 0 -4.970764 -1.4851685 -6.7286987 -4.4555054c-1.7377625 -2.9904785 -2.6066284 -6.7893066 -2.6066284 -11.396301l0 -101.65759c0 -2.7278442 -0.86886597 -4.9606323 -2.606598 -6.6983643c-1.7377625 -1.737793 -3.9705505 -2.6066284 -6.698395 -2.6066284z" fill-rule="evenodd"/><path fill="#ff6fff" d="m431.00598 704.2135c6.2033386 0 11.477173 1.4346924 15.821533 4.303955c4.3443604 2.84906 7.6986084 6.7286987 10.062744 11.638794c1.6809692 3.4768677 2.794983 7.2857666 3.3420105 11.426636l-62.028595 0c0.6385498 -3.5476074 1.7018738 -6.86145 3.189972 -9.941467c2.6066284 -5.415283 6.425598 -9.668701 11.45697 -12.760254c5.031372 -3.1117554 11.08316 -4.6676636 18.155365 -4.6676636zm0 -16.003296c-9.820251 0 -18.519073 2.2024536 -26.096436 6.607422c-7.5571594 4.4049683 -13.4776 10.487061 -17.761322 18.246216c-4.2837524 7.7592163 -6.4256287 16.730774 -6.4256287 26.914734c0 10.0425415 2.2631226 18.94336 6.789337 26.702576c4.5262146 7.7591553 10.790161 13.851379 18.79184 18.27655c8.021912 4.4049683 17.185486 6.607422 27.490692 6.607422c5.718384 0 11.709534 -1.0507202 17.97351 -3.1521606c6.2639465 -2.121643 11.507477 -4.859619 15.730591 -8.213867c2.101471 -1.6165161 3.0915527 -3.5360718 2.970337 -5.758789c-0.12124634 -2.242859 -1.232605 -4.2938232 -3.3340454 -6.152771c-1.5482178 -1.315979 -3.355896 -1.973938 -5.423065 -1.973938c-0.09118652 0 -0.18289185 0.0012817383 -0.27511597 0.0038452148c-2.1620789 0.06060791 -4.1726074 0.77789307 -6.0315857 2.1519165c-2.485382 1.8590088 -5.7486877 3.5057983 -9.7899475 4.9404297c-4.04126 1.4144287 -7.981476 2.121704 -11.820679 2.121704c-7.0722046 0 -13.346252 -1.5457764 -18.822174 -4.63739c-5.4556885 -3.1117554 -9.739441 -7.334839 -12.851196 -12.669312c-2.0714722 -3.5742188 -3.448944 -7.484131 -4.1324463 -11.729675l70.81323 0c2.485382 0 4.536316 -0.7779541 6.1528015 -2.3338623c1.6165161 -1.5558472 2.4247742 -3.5158691 2.4247742 -5.880005c0 -9.800049 -1.8387756 -18.448303 -5.516327 -25.944824c-3.6573486 -7.5167236 -8.961487 -13.416931 -15.912476 -17.700684c-6.9509583 -4.2836914 -15.265839 -6.425537 -24.944672 -6.425537z" fill-rule="evenodd"/><path fill="#ff6fff" d="m552.22626 688.0283c-8.183533 0 -15.56897 1.7983398 -22.156189 5.3950806c-3.576233 1.9526367 -6.7384644 4.2804565 -9.486877 6.9835205l0 0l0 -1.9521484c0 -2.8693237 -0.86883545 -5.1728516 -2.6066284 -6.9105835c-1.7377319 -1.7377319 -4.04126 -2.6065674 -6.9105225 -2.6065674c-2.7278442 0 -4.990967 0.86883545 -6.789337 2.6065674c-1.7983398 1.7377319 -2.6975403 4.04126 -2.6975403 6.9105835l0 83.04767c0 2.7278442 0.89920044 4.990906 2.6975403 6.7892456c1.7983704 1.7984009 4.061493 2.6975708 6.789337 2.6975708c2.8692627 0 5.1727905 -0.8991699 6.9105225 -2.6975708c1.737793 -1.7983398 2.6066284 -4.0614014 2.6066284 -6.7892456l0 -52.526184c0 -4.586792 1.232605 -8.648254 3.697754 -12.184326c2.4854126 -3.5361328 5.8396606 -6.3548584 10.062744 -8.456299c4.2231445 -2.121704 8.941284 -3.182495 14.154541 -3.182495c5.718384 0 10.780029 1.0911255 15.184998 3.2733765c4.4049683 2.1621094 7.9107666 5.475891 10.517395 9.941467c2.6066284 4.465576 3.909912 10.234497 3.909912 17.30664l0 45.82782c0 2.7278442 0.8991699 4.990906 2.6975708 6.7892456c1.7983398 1.7984009 4.0614624 2.6975708 6.7893066 2.6975708c2.7480469 0 5.02124 -0.8991699 6.819641 -2.6975708c1.7983398 -1.7983398 2.6975098 -4.0614014 2.6975098 -6.7892456l0 -45.82782c0 -10.305176 -1.960022 -18.993835 -5.880005 -26.06604c-3.8998413 -7.0721436 -9.234314 -12.436951 -16.003418 -16.094238c-6.769104 -3.6573486 -14.437378 -5.486023 -23.004883 -5.486023z" fill-rule="evenodd"/><path fill="#ff6fff" d="m674.7737 704.97125c6.324524 0 11.972229 1.5255737 16.942932 4.576721c4.970764 3.0309448 8.880676 7.153015 11.729797 12.366211c2.84906 5.213196 4.2736206 11.174072 4.2736206 17.882568c0 6.5670166 -1.4245605 12.527832 -4.2736206 17.882507c-2.849121 5.3344116 -6.759033 9.527222 -11.729797 12.578369c-4.970703 3.0309448 -10.618408 4.5463867 -16.942932 4.5463867c-6.223572 0 -11.851013 -1.5154419 -16.882385 -4.5463867c-5.0111694 -3.0511475 -8.981689 -7.2439575 -11.911621 -12.578369c-2.909729 -5.3546753 -4.364563 -11.315491 -4.364563 -17.882507c0 -6.708496 1.454834 -12.669373 4.364563 -17.882568c2.9299316 -5.213196 6.9004517 -9.335266 11.911621 -12.366211c5.031372 -3.0511475 10.658813 -4.576721 16.882385 -4.576721zm41.70575 -59.588196c-2.7278442 0 -4.990906 0.86883545 -6.7893066 2.6066284c-1.7983398 1.7377319 -2.6975098 4.031128 -2.6975098 6.880188l0 50.283264c-4.2231445 -5.213257 -9.446472 -9.335327 -15.669983 -12.366211c-6.203369 -3.0511475 -12.962341 -4.576721 -20.277039 -4.576721c-9.072632 0 -17.205688 2.2630615 -24.399109 6.7893066c-7.1934204 4.526184 -12.871399 10.668884 -17.033936 18.42804c-4.1624756 7.7592163 -6.2437134 16.54895 -6.2437134 26.369202c0 9.799988 2.2631226 18.609924 6.7893066 26.429749c4.526245 7.819824 10.668945 14.00293 18.428162 18.549316c7.7592163 4.526184 16.488342 6.7893066 26.187378 6.7893066c9.678772 0 18.367493 -2.2631226 26.066101 -6.7893066c7.6986084 -4.5463867 13.810974 -10.729492 18.33722 -18.549316c4.526184 -7.819824 6.7893066 -16.62976 6.7893066 -26.429749l0 -84.92688c0 -2.84906 -0.86883545 -5.142456 -2.6066284 -6.880188c-1.7377319 -1.737793 -4.031128 -2.6066284 -6.880249 -2.6066284z" fill-rule="evenodd"/><path fill="#ff6fff" d="m805.68713 704.97125c6.324585 0 11.972229 1.5255737 16.942993 4.576721c4.970764 3.0309448 8.880676 7.1833496 11.729797 12.457153c2.84906 5.2738037 4.2736206 11.265015 4.2736206 17.97345c0 6.5670166 -1.4245605 12.497559 -4.2736206 17.791626c-2.849121 5.2738037 -6.759033 9.436279 -11.729797 12.487427c-4.970764 3.0309448 -10.618408 4.5463867 -16.942993 4.5463867c-6.2235107 0 -11.850952 -1.5154419 -16.882324 -4.5463867c-5.0111694 -3.0511475 -8.981689 -7.213623 -11.911621 -12.487427c-2.909729 -5.2940674 -4.364563 -11.224609 -4.364563 -17.791626c0 -6.708435 1.454834 -12.699646 4.364563 -17.97345c2.9299316 -5.2738037 6.9004517 -9.4262085 11.911621 -12.457153c5.031372 -3.0511475 10.658813 -4.576721 16.882324 -4.576721zm0 -16.761047c-9.698975 0 -18.4281 2.2630615 -26.187317 6.7893066c-7.7592163 4.526184 -13.901978 10.699158 -18.428162 18.518982c-4.526184 7.819824 -6.7893066 16.639832 -6.7893066 26.460083c0 9.800049 2.0812378 18.57965 6.2437134 26.338867c4.1624756 7.7591553 9.840454 13.911987 17.033936 18.458374c7.1934204 4.526184 15.326477 6.7893066 24.399109 6.7893066c9.052429 0 17.175354 -2.2631226 24.368774 -6.7893066c4.4364624 -2.7960205 8.295837 -6.199707 11.578247 -10.2109375l0 0l0 6.937561c0 2.7278442 0.8991699 4.990906 2.6975098 6.7892456c1.7983398 1.7984009 4.0614624 2.6975708 6.7893066 2.6975708c2.7278442 0 4.990967 -0.8991699 6.7893066 -2.6975708c1.7984009 -1.7983398 2.6975708 -4.0614014 2.6975708 -6.7892456l0 -41.523865c0 -9.820251 -2.2631226 -18.640259 -6.7893066 -26.460083c-4.526245 -7.819824 -10.638611 -13.992798 -18.33722 -18.518982c-7.6986084 -4.526245 -16.38733 -6.7893066 -26.066162 -6.7893066z" fill-rule="evenodd"/><path fill="#ff6fff" d="m935.11456 687.81616c-7.4561157 0 -14.285889 1.7377319 -20.489197 5.213196c-4.180359 2.342102 -7.7871704 5.234741 -10.820496 8.6779175l0 0l0 -3.4646606c0 -3.0916138 -0.7779541 -5.415283 -2.3338013 -6.9711914c-1.5357056 -1.5558472 -3.859436 -2.3338013 -6.9711914 -2.3338013c-2.970337 0 -5.263733 0.80822754 -6.880249 2.4247437c-1.6164551 1.6165161 -2.4247437 3.909912 -2.4247437 6.880249l0 83.25983c0 3.0915527 0.8082886 5.415222 2.4247437 6.9711304c1.6165161 1.5559082 3.909912 2.3338013 6.880249 2.3338013c3.1118164 0 5.435547 -0.80822754 6.9711914 -2.4247437c1.5558472 -1.6165161 2.3338013 -3.909912 2.3338013 -6.880188l0 -54.37506c0 -5.7183228 1.8286743 -10.436523 5.486023 -14.154419c3.6775513 -3.7381592 8.678589 -6.2841797 15.003174 -7.6380005c2.9151611 -0.6312866 5.9988403 -0.94696045 9.250977 -0.94696045c3.8260498 0 7.885376 0.43688965 12.177795 1.310669c0.9907837 0.23535156 1.93219 0.3529663 2.8242798 0.3529663c0.5634155 0 1.1071167 -0.046936035 1.6312256 -0.1408081c1.3740234 -0.26263428 2.5864258 -0.85876465 3.637146 -1.788208c1.0507202 -0.9295044 1.7680664 -2.2631226 2.1519775 -4.0008545c0.86883545 -3.354248 -0.5354614 -6.2437134 -4.2130127 -8.668457c-3.6573486 -2.4247437 -9.2039795 -3.637146 -16.639893 -3.637146z" fill-rule="evenodd"/><path stroke="#000000" stroke-width="8.0" stroke-linejoin="round" stroke-linecap="butt" d="m139.75632 643.50385c-10.183975 0 -19.620308 1.9297485 -28.309029 5.7891235c-8.688713 3.8391724 -16.296387 9.143311 -22.823013 15.912415c-6.506439 6.769104 -11.598427 14.659607 -15.275963 23.67163c-3.6573486 8.99176 -5.4860077 18.700867 -5.4860077 29.127258c0 10.547668 1.828659 20.357788 5.4860077 29.43042c3.677536 9.052368 8.769524 16.963135 15.275963 23.732239c6.5266266 6.769104 14.164604 12.042908 22.913948 15.821472c8.749336 3.7785645 18.155365 5.6678467 28.218094 5.6678467c8.446243 0 16.478256 -1.3638916 24.096008 -4.091736c7.637985 -2.7278442 14.8112335 -6.759033 21.519714 -12.093445c0.99012756 -0.9901123 1.7276459 -2.071167 2.2125854 -3.243103c0.5051727 -1.1921997 0.7577362 -2.404541 0.7577362 -3.637146c0 -2.7480469 -0.7476349 -4.8898926 -2.2428894 -6.425598c-1.4750671 -1.5558472 -3.3037262 -2.4247437 -5.4860077 -2.6065674c-0.24023438 -0.022460938 -0.48095703 -0.033691406 -0.7221985 -0.033691406c-1.9298248 0 -3.8915863 0.7184448 -5.885269 2.1553345c-5.2132263 3.859375 -10.648712 6.880249 -16.306488 9.0625c-5.637558 2.1620483 -11.618607 3.243103 -17.943192 3.243103c-7.3348846 0 -14.235344 -1.454834 -20.701355 -4.364563c-6.445816 -2.9298706 -12.123779 -7.001465 -17.033913 -12.214661c-4.889908 -5.213196 -8.698807 -11.264954 -11.426659 -18.155334c-2.7278519 -6.89032 -4.091774 -14.305969 -4.091774 -22.24707c0 -7.819824 1.3639221 -15.174866 4.091774 -22.065186c2.7278519 -6.89032 6.536751 -12.942139 11.426659 -18.155334c4.9101334 -5.213196 10.588097 -9.304993 17.033913 -12.275269c6.466011 -2.9905396 13.36647 -4.485779 20.701355 -4.485779c8.062317 0 14.548538 1.060791 19.458664 3.182434c4.910141 2.1015015 9.65863 5.1324463 14.245453 9.092834c2.0121155 1.5731201 4.082184 2.3596802 6.2102356 2.3596802c0.22270203 0 0.44602966 -0.008605957 0.66999817 -0.025878906c2.3641357 -0.18182373 4.384781 -1.0507202 6.0618896 -2.6065674c1.677124 -1.5559082 2.515686 -3.5159302 2.515686 -5.880005c0 -1.1113892 -0.10101318 -2.071167 -0.30308533 -2.8793945c-0.18185425 -0.8082886 -0.55566406 -1.6165161 -1.12146 -2.4247437c-0.54556274 -0.8082886 -1.3134003 -1.5862427 -2.3035126 -2.3338623c-6.9509583 -5.69812 -13.871613 -9.789917 -20.761978 -12.275269c-6.890335 -2.4853516 -15.114288 -3.7280884 -24.67189 -3.7280884z" fill-rule="evenodd"/><path stroke="#000000" stroke-width="8.0" stroke-linejoin="round" stroke-linecap="butt" d="m256.14844 704.97125c6.3245544 0 11.972229 1.5255737 16.942963 4.576721c4.970764 3.0309448 8.880676 7.1833496 11.729767 12.457153c2.8490906 5.2738037 4.2736206 11.265015 4.2736206 17.97345c0 6.5670166 -1.42453 12.497559 -4.2736206 17.791626c-2.8490906 5.2738037 -6.7590027 9.436279 -11.729767 12.487427c-4.9707336 3.0309448 -10.618408 4.5463867 -16.942963 4.5463867c-6.2235413 0 -11.850998 -1.5154419 -16.88237 -4.5463867c-5.011154 -3.0511475 -8.981689 -7.213623 -11.911621 -12.487427c-2.9096985 -5.2940674 -4.364563 -11.224609 -4.364563 -17.791626c0 -6.708435 1.4548645 -12.699646 4.364563 -17.97345c2.9299316 -5.2738037 6.900467 -9.4262085 11.911621 -12.457153c5.031372 -3.0511475 10.658829 -4.576721 16.88237 -4.576721zm0 -16.761047c-9.699036 0 -18.428162 2.2630615 -26.187378 6.7893066c-7.7592163 4.526184 -13.901947 10.699158 -18.428146 18.518982c-4.5261993 7.819824 -6.7893066 16.639832 -6.7893066 26.460083c0 9.800049 2.081253 18.57965 6.243744 26.338867c4.162491 7.7591553 9.840439 13.911987 17.033905 18.458374c7.1934357 4.526184 15.326462 6.7893066 24.399109 6.7893066c9.052414 0 17.175339 -2.2631226 24.36879 -6.7893066c4.436432 -2.7960205 8.295837 -6.199707 11.578217 -10.2109375l0 0l0 6.937561c0 2.7278442 0.8991699 4.990906 2.6975403 6.7892456c1.7983704 1.7984009 4.0614624 2.6975708 6.7893066 2.6975708c2.7278748 0 4.990967 -0.8991699 6.789337 -2.6975708c1.7983704 -1.7983398 2.6975403 -4.0614014 2.6975403 -6.7892456l0 -41.523865c0 -9.820251 -2.263092 -18.640259 -6.7893066 -26.460083c-4.526245 -7.819824 -10.638641 -13.992798 -18.33722 -18.518982c-7.6986084 -4.526245 -16.38733 -6.7893066 -26.066132 -6.7893066z" fill-rule="evenodd"/><path stroke="#000000" stroke-width="8.0" stroke-linejoin="round" stroke-linecap="butt" d="m341.23306 645.38306c-2.7278442 0 -4.9606323 0.86883545 -6.698395 2.6066284c-1.7377319 1.7377319 -2.606598 3.97052 -2.606598 6.6983643l0 101.65759c0 6.708496 1.1820679 12.638977 3.5462036 17.791565c2.3641357 5.152649 5.6476746 9.224182 9.850555 12.214722c4.2231445 2.9702759 9.072632 4.4554443 14.548553 4.4554443l0.3637085 0c3.7179565 0 6.7590027 -0.86883545 9.123138 -2.6065674c2.3641357 -1.737793 3.5462036 -3.97052 3.5462036 -6.6983643c0 -2.7278442 -0.7779236 -4.9606323 -2.3338318 -6.6984253c-1.5558777 -1.7377319 -3.5765076 -2.6065674 -6.0618896 -2.6065674l-4.637329 0c-2.7278442 0 -4.970764 -1.4851685 -6.7286987 -4.4555054c-1.7377625 -2.9904785 -2.6066284 -6.7893066 -2.6066284 -11.396301l0 -101.65759c0 -2.7278442 -0.86886597 -4.9606323 -2.606598 -6.6983643c-1.7377625 -1.737793 -3.9705505 -2.6066284 -6.698395 -2.6066284z" fill-rule="evenodd"/><path stroke="#000000" stroke-width="8.0" stroke-linejoin="round" stroke-linecap="butt" d="m431.00598 704.2135c6.2033386 0 11.477173 1.4346924 15.821533 4.303955c4.3443604 2.84906 7.6986084 6.7286987 10.062744 11.638794c1.6809692 3.4768677 2.794983 7.2857666 3.3420105 11.426636l-62.028595 0c0.6385498 -3.5476074 1.7018738 -6.86145 3.189972 -9.941467c2.6066284 -5.415283 6.425598 -9.668701 11.45697 -12.760254c5.031372 -3.1117554 11.08316 -4.6676636 18.155365 -4.6676636zm0 -16.003296c-9.820251 0 -18.519073 2.2024536 -26.096436 6.607422c-7.5571594 4.4049683 -13.4776 10.487061 -17.761322 18.246216c-4.2837524 7.7592163 -6.4256287 16.730774 -6.4256287 26.914734c0 10.0425415 2.2631226 18.94336 6.789337 26.702576c4.5262146 7.7591553 10.790161 13.851379 18.79184 18.27655c8.021912 4.4049683 17.185486 6.607422 27.490692 6.607422c5.718384 0 11.709534 -1.0507202 17.97351 -3.1521606c6.2639465 -2.121643 11.507477 -4.859619 15.730591 -8.213867c2.101471 -1.6165161 3.0915527 -3.5360718 2.970337 -5.758789c-0.12124634 -2.242859 -1.232605 -4.2938232 -3.3340454 -6.152771c-1.5482178 -1.315979 -3.355896 -1.973938 -5.423065 -1.973938c-0.09118652 0 -0.18289185 0.0012817383 -0.27511597 0.0038452148c-2.1620789 0.06060791 -4.1726074 0.77789307 -6.0315857 2.1519165c-2.485382 1.8590088 -5.7486877 3.5057983 -9.7899475 4.9404297c-4.04126 1.4144287 -7.981476 2.121704 -11.820679 2.121704c-7.0722046 0 -13.346252 -1.5457764 -18.822174 -4.63739c-5.4556885 -3.1117554 -9.739441 -7.334839 -12.851196 -12.669312c-2.0714722 -3.5742188 -3.448944 -7.484131 -4.1324463 -11.729675l70.81323 0c2.485382 0 4.536316 -0.7779541 6.1528015 -2.3338623c1.6165161 -1.5558472 2.4247742 -3.5158691 2.4247742 -5.880005c0 -9.800049 -1.8387756 -18.448303 -5.516327 -25.944824c-3.6573486 -7.5167236 -8.961487 -13.416931 -15.912476 -17.700684c-6.9509583 -4.2836914 -15.265839 -6.425537 -24.944672 -6.425537z" fill-rule="evenodd"/><path stroke="#000000" stroke-width="8.0" stroke-linejoin="round" stroke-linecap="butt" d="m552.22626 688.0283c-8.183533 0 -15.56897 1.7983398 -22.156189 5.3950806c-3.576233 1.9526367 -6.7384644 4.2804565 -9.486877 6.9835205l0 0l0 -1.9521484c0 -2.8693237 -0.86883545 -5.1728516 -2.6066284 -6.9105835c-1.7377319 -1.7377319 -4.04126 -2.6065674 -6.9105225 -2.6065674c-2.7278442 0 -4.990967 0.86883545 -6.789337 2.6065674c-1.7983398 1.7377319 -2.6975403 4.04126 -2.6975403 6.9105835l0 83.04767c0 2.7278442 0.89920044 4.990906 2.6975403 6.7892456c1.7983704 1.7984009 4.061493 2.6975708 6.789337 2.6975708c2.8692627 0 5.1727905 -0.8991699 6.9105225 -2.6975708c1.737793 -1.7983398 2.6066284 -4.0614014 2.6066284 -6.7892456l0 -52.526184c0 -4.586792 1.232605 -8.648254 3.697754 -12.184326c2.4854126 -3.5361328 5.8396606 -6.3548584 10.062744 -8.456299c4.2231445 -2.121704 8.941284 -3.182495 14.154541 -3.182495c5.718384 0 10.780029 1.0911255 15.184998 3.2733765c4.4049683 2.1621094 7.9107666 5.475891 10.517395 9.941467c2.6066284 4.465576 3.909912 10.234497 3.909912 17.30664l0 45.82782c0 2.7278442 0.8991699 4.990906 2.6975708 6.7892456c1.7983398 1.7984009 4.0614624 2.6975708 6.7893066 2.6975708c2.7480469 0 5.02124 -0.8991699 6.819641 -2.6975708c1.7983398 -1.7983398 2.6975098 -4.0614014 2.6975098 -6.7892456l0 -45.82782c0 -10.305176 -1.960022 -18.993835 -5.880005 -26.06604c-3.8998413 -7.0721436 -9.234314 -12.436951 -16.003418 -16.094238c-6.769104 -3.6573486 -14.437378 -5.486023 -23.004883 -5.486023z" fill-rule="evenodd"/><path stroke="#000000" stroke-width="8.0" stroke-linejoin="round" stroke-linecap="butt" d="m674.7737 704.97125c6.324524 0 11.972229 1.5255737 16.942932 4.576721c4.970764 3.0309448 8.880676 7.153015 11.729797 12.366211c2.84906 5.213196 4.2736206 11.174072 4.2736206 17.882568c0 6.5670166 -1.4245605 12.527832 -4.2736206 17.882507c-2.849121 5.3344116 -6.759033 9.527222 -11.729797 12.578369c-4.970703 3.0309448 -10.618408 4.5463867 -16.942932 4.5463867c-6.223572 0 -11.851013 -1.5154419 -16.882385 -4.5463867c-5.0111694 -3.0511475 -8.981689 -7.2439575 -11.911621 -12.578369c-2.909729 -5.3546753 -4.364563 -11.315491 -4.364563 -17.882507c0 -6.708496 1.454834 -12.669373 4.364563 -17.882568c2.9299316 -5.213196 6.9004517 -9.335266 11.911621 -12.366211c5.031372 -3.0511475 10.658813 -4.576721 16.882385 -4.576721zm41.70575 -59.588196c-2.7278442 0 -4.990906 0.86883545 -6.7893066 2.6066284c-1.7983398 1.7377319 -2.6975098 4.031128 -2.6975098 6.880188l0 50.283264c-4.2231445 -5.213257 -9.446472 -9.335327 -15.669983 -12.366211c-6.203369 -3.0511475 -12.962341 -4.576721 -20.277039 -4.576721c-9.072632 0 -17.205688 2.2630615 -24.399109 6.7893066c-7.1934204 4.526184 -12.871399 10.668884 -17.033936 18.42804c-4.1624756 7.7592163 -6.2437134 16.54895 -6.2437134 26.369202c0 9.799988 2.2631226 18.609924 6.7893066 26.429749c4.526245 7.819824 10.668945 14.00293 18.428162 18.549316c7.7592163 4.526184 16.488342 6.7893066 26.187378 6.7893066c9.678772 0 18.367493 -2.2631226 26.066101 -6.7893066c7.6986084 -4.5463867 13.810974 -10.729492 18.33722 -18.549316c4.526184 -7.819824 6.7893066 -16.62976 6.7893066 -26.429749l0 -84.92688c0 -2.84906 -0.86883545 -5.142456 -2.6066284 -6.880188c-1.7377319 -1.737793 -4.031128 -2.6066284 -6.880249 -2.6066284z" fill-rule="evenodd"/><path stroke="#000000" stroke-width="8.0" stroke-linejoin="round" stroke-linecap="butt" d="m805.68713 704.97125c6.324585 0 11.972229 1.5255737 16.942993 4.576721c4.970764 3.0309448 8.880676 7.1833496 11.729797 12.457153c2.84906 5.2738037 4.2736206 11.265015 4.2736206 17.97345c0 6.5670166 -1.4245605 12.497559 -4.2736206 17.791626c-2.849121 5.2738037 -6.759033 9.436279 -11.729797 12.487427c-4.970764 3.0309448 -10.618408 4.5463867 -16.942993 4.5463867c-6.2235107 0 -11.850952 -1.5154419 -16.882324 -4.5463867c-5.0111694 -3.0511475 -8.981689 -7.213623 -11.911621 -12.487427c-2.909729 -5.2940674 -4.364563 -11.224609 -4.364563 -17.791626c0 -6.708435 1.454834 -12.699646 4.364563 -17.97345c2.9299316 -5.2738037 6.9004517 -9.4262085 11.911621 -12.457153c5.031372 -3.0511475 10.658813 -4.576721 16.882324 -4.576721zm0 -16.761047c-9.698975 0 -18.4281 2.2630615 -26.187317 6.7893066c-7.7592163 4.526184 -13.901978 10.699158 -18.428162 18.518982c-4.526184 7.819824 -6.7893066 16.639832 -6.7893066 26.460083c0 9.800049 2.0812378 18.57965 6.2437134 26.338867c4.1624756 7.7591553 9.840454 13.911987 17.033936 18.458374c7.1934204 4.526184 15.326477 6.7893066 24.399109 6.7893066c9.052429 0 17.175354 -2.2631226 24.368774 -6.7893066c4.4364624 -2.7960205 8.295837 -6.199707 11.578247 -10.2109375l0 0l0 6.937561c0 2.7278442 0.8991699 4.990906 2.6975098 6.7892456c1.7983398 1.7984009 4.0614624 2.6975708 6.7893066 2.6975708c2.7278442 0 4.990967 -0.8991699 6.7893066 -2.6975708c1.7984009 -1.7983398 2.6975708 -4.0614014 2.6975708 -6.7892456l0 -41.523865c0 -9.820251 -2.2631226 -18.640259 -6.7893066 -26.460083c-4.526245 -7.819824 -10.638611 -13.992798 -18.33722 -18.518982c-7.6986084 -4.526245 -16.38733 -6.7893066 -26.066162 -6.7893066z" fill-rule="evenodd"/><path stroke="#000000" stroke-width="8.0" stroke-linejoin="round" stroke-linecap="butt" d="m935.11456 687.81616c-7.4561157 0 -14.285889 1.7377319 -20.489197 5.213196c-4.180359 2.342102 -7.7871704 5.234741 -10.820496 8.6779175l0 0l0 -3.4646606c0 -3.0916138 -0.7779541 -5.415283 -2.3338013 -6.9711914c-1.5357056 -1.5558472 -3.859436 -2.3338013 -6.9711914 -2.3338013c-2.970337 0 -5.263733 0.80822754 -6.880249 2.4247437c-1.6164551 1.6165161 -2.4247437 3.909912 -2.4247437 6.880249l0 83.25983c0 3.0915527 0.8082886 5.415222 2.4247437 6.9711304c1.6165161 1.5559082 3.909912 2.3338013 6.880249 2.3338013c3.1118164 0 5.435547 -0.80822754 6.9711914 -2.4247437c1.5558472 -1.6165161 2.3338013 -3.909912 2.3338013 -6.880188l0 -54.37506c0 -5.7183228 1.8286743 -10.436523 5.486023 -14.154419c3.6775513 -3.7381592 8.678589 -6.2841797 15.003174 -7.6380005c2.9151611 -0.6312866 5.9988403 -0.94696045 9.250977 -0.94696045c3.8260498 0 7.885376 0.43688965 12.177795 1.310669c0.9907837 0.23535156 1.93219 0.3529663 2.8242798 0.3529663c0.5634155 0 1.1071167 -0.046936035 1.6312256 -0.1408081c1.3740234 -0.26263428 2.5864258 -0.85876465 3.637146 -1.788208c1.0507202 -0.9295044 1.7680664 -2.2631226 2.1519775 -4.0008545c0.86883545 -3.354248 -0.5354614 -6.2437134 -4.2130127 -8.668457c-3.6573486 -2.4247437 -9.2039795 -3.637146 -16.639893 -3.637146z" fill-rule="evenodd"/><path fill="#ffffff" d="m466.66666 485.49344c0 69.26608 74.37009 125.41733 166.11026 125.41733c91.74011 0 166.11023 -56.151245 166.11023 -125.41733l-62.70868 0c0 34.633026 -46.294434 62.70865 -103.40155 62.70865c-57.107117 0 -103.40161 -28.075623 -103.40161 -62.70865z" fill-rule="evenodd"/><path stroke="#000000" stroke-width="12.0" stroke-linejoin="round" stroke-linecap="butt" d="m466.66666 485.49344c0 69.26608 74.37009 125.41733 166.11026 125.41733c91.74011 0 166.11023 -56.151245 166.11023 -125.41733l-62.70868 0c0 34.633026 -46.294434 62.70865 -103.40155 62.70865c-57.107117 0 -103.40161 -28.075623 -103.40161 -62.70865z" fill-rule="evenodd"/><path fill="#ffffff" d="m490.39633 414.32678c0 -29.962555 24.289398 -54.251984 54.251984 -54.251984c14.388489 0 28.187683 5.7158203 38.36194 15.890045c10.174194 10.174225 15.890015 23.97342 15.890015 38.36194c0 29.962524 -24.289429 54.251953 -54.251953 54.251953c-29.962585 0 -54.251984 -24.289429 -54.251984 -54.251953z" fill-rule="evenodd"/><path stroke="#ffffff" stroke-width="1.0" stroke-linejoin="round" stroke-linecap="butt" d="m490.39633 414.32678c0 -29.962555 24.289398 -54.251984 54.251984 -54.251984c14.388489 0 28.187683 5.7158203 38.36194 15.890045c10.174194 10.174225 15.890015 23.97342 15.890015 38.36194c0 29.962524 -24.289429 54.251953 -54.251953 54.251953c-29.962585 0 -54.251984 -24.289429 -54.251984 -54.251953z" fill-rule="evenodd"/><path fill="#ffffff" d="m660.63257 414.32547c0 -29.962555 24.289429 -54.251984 54.251953 -54.251984c14.388489 0 28.187683 5.7158203 38.36194 15.890045c10.174194 10.174225 15.890015 23.97342 15.890015 38.36194c0 29.962524 -24.289429 54.251953 -54.251953 54.251953c-29.962524 0 -54.251953 -24.289429 -54.251953 -54.251953z" fill-rule="evenodd"/><path stroke="#ffffff" stroke-width="1.0" stroke-linejoin="round" stroke-linecap="butt" d="m660.63257 414.32547c0 -29.962555 24.289429 -54.251984 54.251953 -54.251984c14.388489 0 28.187683 5.7158203 38.36194 15.890045c10.174194 10.174225 15.890015 23.97342 15.890015 38.36194c0 29.962524 -24.289429 54.251953 -54.251953 54.251953c-29.962524 0 -54.251953 -24.289429 -54.251953 -54.251953z" fill-rule="evenodd"/><path fill="#ff6fff" d="m112.37253 289.04492c-3.5948563 0 -6.6305084 1.184967 -9.106964 3.5549316c-2.4498138 2.3699646 -3.674736 5.4322815 -3.674736 9.186951l0 166.16391c0 3.5948792 1.2249222 6.6172485 3.674736 9.067108c2.4764557 2.4498596 5.512108 3.6747742 9.106964 3.6747742c3.7546234 0 6.8169174 -1.2249146 9.186844 -3.6747742c2.369934 -2.4498596 3.5549164 -5.472229 3.5549164 -9.067108l0 -73.13608l113.87697 0l0 73.13608c0 3.5948792 1.2249146 6.6172485 3.6747437 9.067108c2.4764557 2.4498596 5.5121 3.6747742 9.106964 3.6747742c3.7546234 0 6.7769623 -1.2249146 9.067001 -3.6747742c2.2900696 -2.4498596 3.435089 -5.472229 3.435089 -9.067108l0 -166.16391c0 -3.7546692 -1.1450195 -6.816986 -3.435089 -9.186951c-2.290039 -2.3699646 -5.312378 -3.5549316 -9.067001 -3.5549316c-3.594864 0 -6.6305084 1.184967 -9.106964 3.5549316c-2.449829 2.3699646 -3.6747437 5.4322815 -3.6747437 9.186951l0 70.41995l-113.87697 0l0 -70.41995c0 -3.7546692 -1.1849823 -6.816986 -3.5549164 -9.186951c-2.3699265 -2.3699646 -5.4322205 -3.5549316 -9.186844 -3.5549316z" fill-rule="evenodd"/><path fill="#ff6fff" d="m371.77805 367.57333c8.334717 0 15.777405 2.0104675 22.328033 6.031433c6.550598 3.9943237 11.703247 9.466553 15.457855 16.416656c3.7546387 6.9501343 5.6319275 14.845581 5.6319275 23.68637c0 8.654358 -1.8772888 16.46991 -5.6319275 23.446686c-3.7546082 6.9501038 -8.907257 12.435669 -15.457855 16.456604c-6.5506287 3.9943237 -13.993317 5.9914856 -22.328033 5.9914856c-8.201599 0 -15.617645 -1.9971619 -22.248169 -5.9914856c-6.603882 -4.020935 -11.836365 -9.5065 -15.69751 -16.456604c-3.8345337 -6.9767456 -5.75177 -14.792328 -5.75177 -23.446686c0 -8.84079 1.9172363 -16.736237 5.75177 -23.68637c3.861145 -6.9501038 9.093628 -12.422333 15.69751 -16.416656c6.6305237 -4.0209656 14.04657 -6.031433 22.248169 -6.031433zm0 -22.088623c-12.781708 0 -24.285248 2.9824524 -34.51062 8.947296c-10.225342 5.9648438 -18.320404 14.099976 -24.285217 24.405334c-5.964813 10.305359 -8.947205 21.928833 -8.947205 34.870453c0 12.914978 2.7427368 24.485199 8.228241 34.710663c5.4854736 10.225464 12.968109 18.333954 22.447845 24.32544c9.479767 5.9648743 20.197754 8.947296 32.15396 8.947296c11.929596 0 22.634277 -2.9824219 32.114044 -8.947296c5.846466 -3.684784 10.932495 -8.170288 15.258148 -13.456482l0 0l0 9.142609c0 3.5949097 1.184967 6.5773315 3.5549011 8.947296c2.3699646 2.3699646 5.352356 3.5549316 8.947205 3.5549316c3.5948486 0 6.57724 -1.184967 8.947205 -3.5549316c2.369934 -2.3699646 3.5549011 -5.3523865 3.5549011 -8.947296l0 -54.72223c0 -12.94162 -2.9823914 -24.565094 -8.947205 -34.870453c-5.9647827 -10.305359 -14.019928 -18.44049 -24.165405 -24.405334c-10.145477 -5.9648438 -21.595734 -8.947296 -34.3508 -8.947296z" fill-rule="evenodd"/><path fill="#ff6fff" d="m544.0593 367.57333c8.334717 0 15.764099 2.0104675 22.288086 6.031433c6.550598 3.9943237 11.743164 9.466553 15.577698 16.416656c3.861145 6.9501343 5.791687 14.845581 5.791687 23.68637c0 8.654358 -1.930542 16.46991 -5.791687 23.446686c-3.8345337 6.9501038 -9.0271 12.435669 -15.577698 16.456604c-6.523987 3.9943237 -13.953369 5.9914856 -22.288086 5.9914856c-8.201599 0 -15.617676 -1.9971619 -22.248169 -5.9914856c-6.603882 -4.020935 -11.796417 -9.5065 -15.577698 -16.456604c-3.7546082 -6.9767456 -5.6319275 -14.792328 -5.6319275 -23.446686c0 -8.84079 1.8773193 -16.736237 5.6319275 -23.68637c3.7812805 -6.9501038 8.973816 -12.422333 15.577698 -16.416656c6.630493 -4.0209656 14.04657 -6.031433 22.248169 -6.031433zm0 -22.088623c-12.781677 0 -24.2453 2.9824524 -34.390778 8.947296c-10.145477 5.9648438 -18.160675 14.099976 -24.045563 24.405334c-5.884918 10.305359 -8.907257 21.928833 -9.067017 34.870453l0 111.88101c0 3.621521 1.184967 6.6172485 3.5549011 8.987244c2.369934 2.369934 5.3523254 3.5549316 8.947205 3.5549316c3.78125 0 6.8168945 -1.1849976 9.106964 -3.5549316c2.290039 -2.369995 3.4350586 -5.3657227 3.4350586 -8.987244l0 -66.26584c5.7251587 6.8968506 12.635254 12.355774 20.730347 16.37674c8.095093 3.9943237 16.962341 5.9914856 26.601929 5.9914856c11.956177 0 22.674194 -2.9824219 32.15393 -8.947296c9.506409 -5.9914856 16.989014 -14.099976 22.447876 -24.32544c5.4854736 -10.225464 8.22821 -21.795685 8.22821 -34.710663c0 -12.94162 -2.9824219 -24.565094 -8.947205 -34.870453c-5.9647827 -10.305359 -14.019897 -18.44049 -24.165405 -24.405334c-10.145447 -5.9648438 -21.675598 -8.947296 -34.590454 -8.947296z" fill-rule="evenodd"/><path fill="#ff6fff" d="m716.58154 367.57333c8.334717 0 15.764099 2.0104675 22.288086 6.031433c6.550659 3.9943237 11.743225 9.466553 15.577698 16.416656c3.861145 6.9501343 5.791748 14.845581 5.791748 23.68637c0 8.654358 -1.930603 16.46991 -5.791748 23.446686c-3.8344727 6.9501038 -9.027039 12.435669 -15.577698 16.456604c-6.523987 3.9943237 -13.953369 5.9914856 -22.288086 5.9914856c-8.201599 0 -15.617615 -1.9971619 -22.248108 -5.9914856c-6.603943 -4.020935 -11.796509 -9.5065 -15.577698 -16.456604c-3.7546387 -6.9767456 -5.631958 -14.792328 -5.631958 -23.446686c0 -8.84079 1.8773193 -16.736237 5.631958 -23.68637c3.781189 -6.9501038 8.973755 -12.422333 15.577698 -16.416656c6.630493 -4.0209656 14.046509 -6.031433 22.248108 -6.031433zm0 -22.088623c-12.781677 0 -24.2453 2.9824524 -34.390747 8.947296c-10.145508 5.9648438 -18.160645 14.099976 -24.045593 24.405334c-5.8848877 10.305359 -8.907227 21.928833 -9.067017 34.870453l0 111.88101c0 3.621521 1.1849976 6.6172485 3.5549316 8.987244c2.369934 2.369934 5.352295 3.5549316 8.947205 3.5549316c3.78125 0 6.8168945 -1.1849976 9.106934 -3.5549316c2.290039 -2.369995 3.4350586 -5.3657227 3.4350586 -8.987244l0 -66.26584c5.7251587 6.8968506 12.635254 12.355774 20.730347 16.37674c8.095093 3.9943237 16.962402 5.9914856 26.601929 5.9914856c11.956238 0 22.674194 -2.9824219 32.15393 -8.947296c9.506409 -5.9914856 16.989014 -14.099976 22.447876 -24.32544c5.4854736 -10.225464 8.22821 -21.795685 8.22821 -34.710663c0 -12.94162 -2.9823608 -24.565094 -8.947144 -34.870453c-5.9648438 -10.305359 -14.0199585 -18.44049 -24.165405 -24.405334c-10.145508 -5.9648438 -21.67566 -8.947296 -34.590515 -8.947296z" fill-rule="evenodd"/><path fill="#ff6fff" d="m910.97687 346.3479c-4.1254883 0 -7.333313 2.4017944 -9.623413 7.205353l-39.44049 89.11038l-44.95868 -89.35004c-1.4912109 -3.0889282 -3.6347656 -5.165985 -6.430786 -6.23114c-1.2446289 -0.47872925 -2.5216064 -0.7180786 -3.8308105 -0.7180786c-1.6037598 0 -3.2559814 0.35916138 -4.956604 1.0775452c-3.1155396 1.3048401 -5.2857666 3.3952026 -6.510681 6.271118c-1.2249146 2.8492737 -1.0252075 5.8316956 0.5991821 8.947266l55.14563 104.72696l-24.469604 55.285706c-3.2752686 7.0299683 -1.3047485 12.182678 5.91156 15.458008c2.290039 0.9852905 4.2472534 1.4779053 5.871582 1.4779053c4.420349 0 7.6157837 -2.5430298 9.586304 -7.6291504l75.09247 -168.84009c3.2753296 -7.189789 1.2249146 -12.342468 -6.151184 -15.458038c-2.114685 -0.88916016 -4.0595093 -1.3337097 -5.8344727 -1.3337097z" fill-rule="evenodd"/><path stroke="#4c1130" stroke-width="8.0" stroke-linejoin="round" stroke-linecap="butt" d="m112.37253 289.04492c-3.5948563 0 -6.6305084 1.184967 -9.106964 3.5549316c-2.4498138 2.3699646 -3.674736 5.4322815 -3.674736 9.186951l0 166.16391c0 3.5948792 1.2249222 6.6172485 3.674736 9.067108c2.4764557 2.4498596 5.512108 3.6747742 9.106964 3.6747742c3.7546234 0 6.8169174 -1.2249146 9.186844 -3.6747742c2.369934 -2.4498596 3.5549164 -5.472229 3.5549164 -9.067108l0 -73.13608l113.87697 0l0 73.13608c0 3.5948792 1.2249146 6.6172485 3.6747437 9.067108c2.4764557 2.4498596 5.5121 3.6747742 9.106964 3.6747742c3.7546234 0 6.7769623 -1.2249146 9.067001 -3.6747742c2.2900696 -2.4498596 3.435089 -5.472229 3.435089 -9.067108l0 -166.16391c0 -3.7546692 -1.1450195 -6.816986 -3.435089 -9.186951c-2.290039 -2.3699646 -5.312378 -3.5549316 -9.067001 -3.5549316c-3.594864 0 -6.6305084 1.184967 -9.106964 3.5549316c-2.449829 2.3699646 -3.6747437 5.4322815 -3.6747437 9.186951l0 70.41995l-113.87697 0l0 -70.41995c0 -3.7546692 -1.1849823 -6.816986 -3.5549164 -9.186951c-2.3699265 -2.3699646 -5.4322205 -3.5549316 -9.186844 -3.5549316z" fill-rule="evenodd"/><path stroke="#4c1130" stroke-width="8.0" stroke-linejoin="round" stroke-linecap="butt" d="m371.77805 367.57333c8.334717 0 15.777405 2.0104675 22.328033 6.031433c6.550598 3.9943237 11.703247 9.466553 15.457855 16.416656c3.7546387 6.9501343 5.6319275 14.845581 5.6319275 23.68637c0 8.654358 -1.8772888 16.46991 -5.6319275 23.446686c-3.7546082 6.9501038 -8.907257 12.435669 -15.457855 16.456604c-6.5506287 3.9943237 -13.993317 5.9914856 -22.328033 5.9914856c-8.201599 0 -15.617645 -1.9971619 -22.248169 -5.9914856c-6.603882 -4.020935 -11.836365 -9.5065 -15.69751 -16.456604c-3.8345337 -6.9767456 -5.75177 -14.792328 -5.75177 -23.446686c0 -8.84079 1.9172363 -16.736237 5.75177 -23.68637c3.861145 -6.9501038 9.093628 -12.422333 15.69751 -16.416656c6.6305237 -4.0209656 14.04657 -6.031433 22.248169 -6.031433zm0 -22.088623c-12.781708 0 -24.285248 2.9824524 -34.51062 8.947296c-10.225342 5.9648438 -18.320404 14.099976 -24.285217 24.405334c-5.964813 10.305359 -8.947205 21.928833 -8.947205 34.870453c0 12.914978 2.7427368 24.485199 8.228241 34.710663c5.4854736 10.225464 12.968109 18.333954 22.447845 24.32544c9.479767 5.9648743 20.197754 8.947296 32.15396 8.947296c11.929596 0 22.634277 -2.9824219 32.114044 -8.947296c5.846466 -3.684784 10.932495 -8.170288 15.258148 -13.456482l0 0l0 9.142609c0 3.5949097 1.184967 6.5773315 3.5549011 8.947296c2.3699646 2.3699646 5.352356 3.5549316 8.947205 3.5549316c3.5948486 0 6.57724 -1.184967 8.947205 -3.5549316c2.369934 -2.3699646 3.5549011 -5.3523865 3.5549011 -8.947296l0 -54.72223c0 -12.94162 -2.9823914 -24.565094 -8.947205 -34.870453c-5.9647827 -10.305359 -14.019928 -18.44049 -24.165405 -24.405334c-10.145477 -5.9648438 -21.595734 -8.947296 -34.3508 -8.947296z" fill-rule="evenodd"/><path stroke="#4c1130" stroke-width="8.0" stroke-linejoin="round" stroke-linecap="butt" d="m544.0593 367.57333c8.334717 0 15.764099 2.0104675 22.288086 6.031433c6.550598 3.9943237 11.743164 9.466553 15.577698 16.416656c3.861145 6.9501343 5.791687 14.845581 5.791687 23.68637c0 8.654358 -1.930542 16.46991 -5.791687 23.446686c-3.8345337 6.9501038 -9.0271 12.435669 -15.577698 16.456604c-6.523987 3.9943237 -13.953369 5.9914856 -22.288086 5.9914856c-8.201599 0 -15.617676 -1.9971619 -22.248169 -5.9914856c-6.603882 -4.020935 -11.796417 -9.5065 -15.577698 -16.456604c-3.7546082 -6.9767456 -5.6319275 -14.792328 -5.6319275 -23.446686c0 -8.84079 1.8773193 -16.736237 5.6319275 -23.68637c3.7812805 -6.9501038 8.973816 -12.422333 15.577698 -16.416656c6.630493 -4.0209656 14.04657 -6.031433 22.248169 -6.031433zm0 -22.088623c-12.781677 0 -24.2453 2.9824524 -34.390778 8.947296c-10.145477 5.9648438 -18.160675 14.099976 -24.045563 24.405334c-5.884918 10.305359 -8.907257 21.928833 -9.067017 34.870453l0 111.88101c0 3.621521 1.184967 6.6172485 3.5549011 8.987244c2.369934 2.369934 5.3523254 3.5549316 8.947205 3.5549316c3.78125 0 6.8168945 -1.1849976 9.106964 -3.5549316c2.290039 -2.369995 3.4350586 -5.3657227 3.4350586 -8.987244l0 -66.26584c5.7251587 6.8968506 12.635254 12.355774 20.730347 16.37674c8.095093 3.9943237 16.962341 5.9914856 26.601929 5.9914856c11.956177 0 22.674194 -2.9824219 32.15393 -8.947296c9.506409 -5.9914856 16.989014 -14.099976 22.447876 -24.32544c5.4854736 -10.225464 8.22821 -21.795685 8.22821 -34.710663c0 -12.94162 -2.9824219 -24.565094 -8.947205 -34.870453c-5.9647827 -10.305359 -14.019897 -18.44049 -24.165405 -24.405334c-10.145447 -5.9648438 -21.675598 -8.947296 -34.590454 -8.947296z" fill-rule="evenodd"/><path stroke="#4c1130" stroke-width="8.0" stroke-linejoin="round" stroke-linecap="butt" d="m716.58154 367.57333c8.334717 0 15.764099 2.0104675 22.288086 6.031433c6.550659 3.9943237 11.743225 9.466553 15.577698 16.416656c3.861145 6.9501343 5.791748 14.845581 5.791748 23.68637c0 8.654358 -1.930603 16.46991 -5.791748 23.446686c-3.8344727 6.9501038 -9.027039 12.435669 -15.577698 16.456604c-6.523987 3.9943237 -13.953369 5.9914856 -22.288086 5.9914856c-8.201599 0 -15.617615 -1.9971619 -22.248108 -5.9914856c-6.603943 -4.020935 -11.796509 -9.5065 -15.577698 -16.456604c-3.7546387 -6.9767456 -5.631958 -14.792328 -5.631958 -23.446686c0 -8.84079 1.8773193 -16.736237 5.631958 -23.68637c3.781189 -6.9501038 8.973755 -12.422333 15.577698 -16.416656c6.630493 -4.0209656 14.046509 -6.031433 22.248108 -6.031433zm0 -22.088623c-12.781677 0 -24.2453 2.9824524 -34.390747 8.947296c-10.145508 5.9648438 -18.160645 14.099976 -24.045593 24.405334c-5.8848877 10.305359 -8.907227 21.928833 -9.067017 34.870453l0 111.88101c0 3.621521 1.1849976 6.6172485 3.5549316 8.987244c2.369934 2.369934 5.352295 3.5549316 8.947205 3.5549316c3.78125 0 6.8168945 -1.1849976 9.106934 -3.5549316c2.290039 -2.369995 3.4350586 -5.3657227 3.4350586 -8.987244l0 -66.26584c5.7251587 6.8968506 12.635254 12.355774 20.730347 16.37674c8.095093 3.9943237 16.962402 5.9914856 26.601929 5.9914856c11.956238 0 22.674194 -2.9824219 32.15393 -8.947296c9.506409 -5.9914856 16.989014 -14.099976 22.447876 -24.32544c5.4854736 -10.225464 8.22821 -21.795685 8.22821 -34.710663c0 -12.94162 -2.9823608 -24.565094 -8.947144 -34.870453c-5.9648438 -10.305359 -14.0199585 -18.44049 -24.165405 -24.405334c-10.145508 -5.9648438 -21.67566 -8.947296 -34.590515 -8.947296z" fill-rule="evenodd"/><path stroke="#4c1130" stroke-width="8.0" stroke-linejoin="round" stroke-linecap="butt" d="m910.97687 346.3479c-4.1254883 0 -7.333313 2.4017944 -9.623413 7.205353l-39.44049 89.11038l-44.95868 -89.35004c-1.4912109 -3.0889282 -3.6347656 -5.165985 -6.430786 -6.23114c-1.2446289 -0.47872925 -2.5216064 -0.7180786 -3.8308105 -0.7180786c-1.6037598 0 -3.2559814 0.35916138 -4.956604 1.0775452c-3.1155396 1.3048401 -5.2857666 3.3952026 -6.510681 6.271118c-1.2249146 2.8492737 -1.0252075 5.8316956 0.5991821 8.947266l55.14563 104.72696l-24.469604 55.285706c-3.2752686 7.0299683 -1.3047485 12.182678 5.91156 15.458008c2.290039 0.9852905 4.2472534 1.4779053 5.871582 1.4779053c4.420349 0 7.6157837 -2.5430298 9.586304 -7.6291504l75.09247 -168.84009c3.2753296 -7.189789 1.2249146 -12.342468 -6.151184 -15.458038c-2.114685 -0.88916016 -4.0595093 -1.3337097 -5.8344727 -1.3337097z" fill-rule="evenodd"/></g></svg>